<?xml version="1.0" encoding="UTF-8" standalone="no"?>
<!-- Created with Inkscape (http://www.inkscape.org/) -->

<svg
   xmlns:dc="http://purl.org/dc/elements/1.1/"
   xmlns:cc="http://creativecommons.org/ns#"
   xmlns:rdf="http://www.w3.org/1999/02/22-rdf-syntax-ns#"
   xmlns:svg="http://www.w3.org/2000/svg"
   xmlns="http://www.w3.org/2000/svg"
   xmlns:sodipodi="http://sodipodi.sourceforge.net/DTD/sodipodi-0.dtd"
   xmlns:inkscape="http://www.inkscape.org/namespaces/inkscape"
   width="1024"
   height="500"
   viewBox="0 0 1024 500.00001"
   id="svg2"
   version="1.1"
   inkscape:version="0.91 r13725"
   sodipodi:docname="feature.svg"
   inkscape:export-filename="/home/jle/Git/ApiExplorer/pics/feature.png"
   inkscape:export-xdpi="90"
   inkscape:export-ydpi="90">
  <defs
     id="defs4" />
  <sodipodi:namedview
     id="base"
     pagecolor="#ffffff"
     bordercolor="#666666"
     borderopacity="1.0"
     inkscape:pageopacity="0.0"
     inkscape:pageshadow="2"
     inkscape:zoom="0.49497474"
     inkscape:cx="409.57548"
     inkscape:cy="398.9392"
     inkscape:document-units="px"
     inkscape:current-layer="layer1"
     showgrid="false"
     units="px"
     inkscape:window-width="1366"
     inkscape:window-height="710"
     inkscape:window-x="0"
     inkscape:window-y="0"
     inkscape:window-maximized="1" />
  <metadata
     id="metadata7">
    <rdf:RDF>
      <cc:Work
         rdf:about="">
        <dc:format>image/svg+xml</dc:format>
        <dc:type
           rdf:resource="http://purl.org/dc/dcmitype/StillImage" />
        <dc:title></dc:title>
      </cc:Work>
    </rdf:RDF>
  </metadata>
  <g
     inkscape:label="Ebene 1"
     inkscape:groupmode="layer"
     id="layer1"
     transform="translate(0,-552.36214)">
    <rect
       style="fill:#3f51b5;fill-opacity:1;stroke:none"
       id="rect4136"
       width="1024"
       height="500"
       x="0"
       y="552.36212" />
    <g
       transform="matrix(0.59049,0,0,0.59049,360.83456,332.11823)"
       id="layer1-3"
       inkscape:label="Ebene 1">
      <circle
         r="256"
         cy="796.36218"
         cx="256"
         id="path4152"
         style="fill:#e6e6e6;fill-opacity:1;stroke:none" />
      <path
         id="path4156"
         d="m 151.90253,687.06658 124.49964,0 0,124.49964 -124.49964,0 z"
         inkscape:connector-curvature="0"
         style="fill:none;stroke:none" />
      <g
         id="g4199">
        <g
           transform="matrix(19.699465,0,0,19.699465,19.60642,559.96858)"
           id="g4148"
           style="fill:#000000;stroke:none">
          <path
             inkscape:connector-curvature="0"
             d="m 15.5,14 -0.79,0 -0.28,-0.27 C 15.41,12.59 16,11.11 16,9.5 16,5.91 13.09,3 9.5,3 5.91,3 3,5.91 3,9.5 3,13.09 5.91,16 9.5,16 c 1.61,0 3.09,-0.59 4.23,-1.57 L 14,14.71 14,15.5 19,20.49 20.49,19 15.5,14 Z m -6,0 C 7.01,14 5,11.99 5,9.5 5,7.01 7.01,5 9.5,5 11.99,5 14,7.01 14,9.5 14,11.99 11.99,14 9.5,14 Z"
             id="path4138"
             style="stroke:none" />
          <path
             style="fill:none;stroke:none"
             inkscape:connector-curvature="0"
             d="M 0,0 24,0 24,24 0,24 Z"
             id="path4140" />
        </g>
        <path
           inkscape:connector-curvature="0"
           d="m 171.31543,701.46604 69.01858,0 0,12.87838 13.8037,0 0,-25.75677 c 0,-7.08313 -6.21166,-12.81401 -13.8037,-12.81401 l -69.01858,-0.0644 c -7.59202,0 -13.8037,5.79526 -13.8037,12.8784 l 0,25.75677 13.8037,0 0,-12.87838 z m 58.04464,74.63025 31.67951,-29.5559 -31.67951,-29.5559 -9.73163,9.14365 21.87888,20.41225 -21.87888,20.41224 9.73163,9.14366 z m -37.33907,-9.14366 -21.87887,-20.41224 21.87887,-20.41225 -9.73163,-9.14365 -31.67951,29.5559 31.67951,29.5559 9.73163,-9.14366 z m 48.31301,24.66212 -69.01858,0 0,-12.87838 -13.8037,0 0,25.75677 c 0,7.08311 6.21168,12.8784 13.8037,12.8784 l 69.01858,0 c 7.59204,0 13.8037,-5.79529 13.8037,-12.8784 l 0,-25.75677 -13.8037,0 0,12.87838 z"
           id="path4158"
           style="fill:#3f51b5;fill-opacity:1;stroke:none" />
      </g>
    </g>
  </g>
</svg>
